<svg xmlns="http://www.w3.org/2000/svg" xmlns:xlink="http://www.w3.org/1999/xlink" version="1.1" x="0px" y="0px" viewBox="0 0 1000 1250" enable-background="new 0 0 1000 1000" xml:space="preserve"><g><path d="M483.1,664.7l-91.4,91.4c-40.2,40.2-105.5,40.2-145.6,0l-2.2-2.2c-40.2-40.2-40.2-105.5,0-145.6l134.7-134.7   c40.2-40.2,105.5-40.2,145.6,0l2.2,2.2c17,17,26.7,38.4,29.4,60.6c18.8-1.6,37.2-9.6,51.6-24l34.5-34.5   c-9.8-26.1-25.1-50.5-46-71.5l-2.2-2.2c-78.4-78.4-206.1-78.4-284.5,0L174.5,538.8c-78.4,78.4-78.4,206.1,0,284.5l2.2,2.2   c78.4,78.4,206.1,78.4,284.5,0l134.7-134.7c8.7-8.7,16.4-18,23.2-27.8C575.1,677.8,527.4,678.3,483.1,664.7z"/><path d="M825.5,176.7l-2.2-2.2c-78.4-78.4-206.1-78.4-284.5,0L404.2,309.2c-8.7,8.7-16.4,18-23.2,27.8c44-14.7,91.7-15.2,135.9-1.6   l91.4-91.4c40.2-40.2,105.5-40.2,145.6,0l2.2,2.2c40.2,40.2,40.2,105.5,0,145.6L621.4,526.4c-40.2,40.2-105.5,40.2-145.6,0   l-2.2-2.2c-17-17-26.7-38.4-29.4-60.6c-18.8,1.6-37.2,9.6-51.6,24l-34.5,34.5c9.8,26.1,25.1,50.5,46,71.5l2.2,2.2   c78.4,78.4,206.1,78.4,284.5,0l134.7-134.7C903.9,382.7,903.9,255.1,825.5,176.7z"/></g></svg>
